<?xml version="1.0" encoding="UTF-8"?>
<svg xmlns="http://www.w3.org/2000/svg" viewBox="0 0 128 128" width="128" height="128">
  <path fill="#f44336" d="M69.8 19c5.5 9.3-5.7 17.5-5.7 17.5s3.4-7.7-3.4-13.9C53.5 17.6 69.8 19 69.8 19z"/>
  <path fill="#f44336" d="M60.9 44.7c2 2.3-1.5 4.5-1.5 4.5s.5-1.5-1.4-3.3c-2.3-2.1 3-1.2 3-1.2z"/>
  <path fill="#f44336" d="M64.8 49.3c4.8 2.8-.2 5.7-.2 5.7s.8-1.3-1.6-3.2c-2.8-2.3 1.8-2.5 1.8-2.5z"/>
  <path fill="#f44336" d="M63.5 58.9c4.1 4.3-3.7 8.1-3.7 8.1s1.4-1.6-1.4-4.2c-3.5-3.3 5.1-3.9 5.1-3.9z"/>
  <path fill="#1565c0" d="M37.7 80.7c-1.6 1.3 3.1 2.4 10.2 2.7 15.9.7 38.7-.6 38.8-3.4 0-1.9-8.6-3-19.2-3.4-17-.6-28.3 1.1-29.8 4.1z"/>
  <path fill="#1565c0" d="M45.4 89.9c-2.8 1.9 2.1 3.8 12.6 4.2 17.1.7 44.8-1.3 43.7-4.6-.9-2.9-35.6-2.9-46.6-2.4-4.8.2-8.7.8-9.7 2.8z"/>
  <path fill="#1565c0" d="M93.8 96.5c-6.7 3.5-28.8 5-43.1 3.3-10.5-1.3-7.9 2.4-1.7 3.9 6.8 1.6 20.8 1.8 33.8.9 10.4-.7 21.3-3.4 21.7-7.4.3-3-6.5-1.5-10.7-.7z"/>
  <path fill="#1565c0" d="M88 83.7c-14.4 2.8-32.9 2.5-44.4.7-2.4-.4-5.3 1.4-1.9 2.9 7.6 3.4 22.9 4.4 36.9 2.9 9.3-1 19-3.4 19.4-6.2.3-2.1-5.3-1.5-10-1.3z"/>
  <path fill="#1565c0" d="M43.2 75.8c7.8 1.6 19.6 1.8 32.1.8 8.1-.6 9.7-1.9 9.1-3.8-.6-1.8-5.5-1.5-12.4-1-11.1.8-17.8.7-26.2.5-5.9-.1-6.9 2-2.6 3.5z"/>
  <path fill="#1565c0" d="M79.8 71.5c6.1-.7 9.7-3 8.9-5.3-.8-2.4-5.8-2.7-11.4-1.9-6.1.8-10.5.5-16.2.1-6.7-.4-8.1 2.1-4.8 3.7 5.6 2.7 14.3 3.3 23.5 3.4z"/>
  <path fill="#1565c0" d="M76.2 62.1c4.5-.4 7.6-2 7.1-4.1-.5-2-3.9-2.7-8-2.3-5 .4-8.8.5-14 .3-6.1-.3-7.7 1.9-3.8 3.2 5.3 1.7 12.7 2.2 18.7 2.9z"/>
  <path fill="#1565c0" d="M70.2 54c3.3-.2 5.6-1.5 5.2-3-.4-1.5-2.8-2.4-6-2.2-3.3.2-6 .4-9.5.3-4.3-.1-5.6 1.5-2.5 2.7 3.6 1.3 8.5 1.7 12.8 2.2z"/>
</svg>
